<svg width="82" height="81" viewBox="0 0 82 81" fill="none" xmlns="http://www.w3.org/2000/svg">
<path d="M26.7695 23.4039C28.8358 18.102 32.69 13.6889 37.6656 10.928C42.6412 8.16702 48.4253 7.23179 54.0175 8.28403C59.6097 9.33628 64.6582 12.3098 68.2901 16.6904C71.9219 21.071 73.9086 26.5831 73.9065 32.2734C73.906 37.9115 71.9533 43.3755 68.3802 47.7367C64.807 52.098 59.834 55.0875 54.3062 56.1971" stroke="#84B750" stroke-width="4" stroke-linecap="round" stroke-linejoin="round"/>
<path d="M37.2167 72.2756C34.8781 71.51 32.7966 70.1128 31.2022 68.2384C29.6078 66.3641 28.5626 64.0854 28.1821 61.6543C27.8015 59.2231 28.1004 56.7341 29.0457 54.4622C29.991 52.1902 31.546 50.2238 33.5388 48.7802C35.5316 47.3366 37.8847 46.4719 40.338 46.2817C42.7914 46.0916 45.2497 46.5833 47.4411 47.7026C49.6326 48.8219 51.472 50.5252 52.7561 52.6243C54.0402 54.7234 54.7191 57.1367 54.7177 59.5974C54.7167 62.4319 53.8129 65.1923 52.1374 67.4786C50.4619 69.7648 48.1019 71.458 45.3994 72.3127" stroke="#84B750" stroke-width="4" stroke-linecap="round" stroke-linejoin="round"/>
<path d="M37.2166 66.6461C35.9588 65.9126 34.9159 64.8612 34.1926 63.5975C33.4694 62.3337 33.0911 60.902 33.0958 59.4459C33.1004 57.9899 33.4879 56.5606 34.2192 55.3015C34.9506 54.0424 36.0002 52.9978 37.2627 52.2724C38.5252 51.5469 39.9563 51.1662 41.4124 51.1684C42.8684 51.1706 44.2984 51.5556 45.5587 52.2848C46.819 53.014 47.8654 54.0618 48.593 55.3231C49.3206 56.5844 49.7038 58.0148 49.7041 59.4709C49.7045 60.9593 49.3052 62.4206 48.548 63.7021C47.7907 64.9835 46.7033 66.0381 45.3993 66.7558M41.3695 73.1312V61.9127M21.4418 58.1074C17.2781 57.0798 13.6345 54.5637 11.1988 51.0338C8.76312 47.5039 7.70382 43.2045 8.22086 38.9472C8.7379 34.6898 10.7955 30.769 14.0053 27.9247C17.2151 25.0805 21.3551 23.5096 25.6437 23.5085H25.6555C27.9611 23.5077 30.2443 23.9609 32.3747 24.8424C34.5051 25.7239 36.4411 27.0164 38.072 28.646C39.7029 30.2757 40.9969 32.2106 41.88 34.3404C42.7631 36.4701 43.2181 38.753 43.219 41.0585V41.0636C43.2198 42.8429 42.9501 44.6119 42.4192 46.31" stroke="#84B750" stroke-width="3" stroke-linecap="round" stroke-linejoin="round"/>
<path d="M21.442 50.836C19.6689 50.0832 18.133 48.8642 16.9972 47.3085C15.8615 45.7527 15.1685 43.9184 14.9917 42.0003C14.815 40.0822 15.1612 38.1521 15.9936 36.4151C16.8259 34.678 18.1133 33.1989 19.7189 32.1348C21.3246 31.0708 23.1885 30.4616 25.1126 30.372C27.0367 30.2825 28.9491 30.7158 30.6467 31.6261C32.3442 32.5363 33.7634 33.8894 34.7536 35.5416C35.7437 37.1939 36.2678 39.0835 36.27 41.0096C36.2691 43.1286 35.6373 45.1993 34.4549 46.9578C33.2726 48.7163 31.5934 50.0828 29.6314 50.8832M25.6084 58.6525V44.0606M35.5916 26.5613C36.9139 23.3389 39.3139 20.6756 42.3817 19.0262C45.4494 17.3769 48.9947 16.8437 52.4119 17.5179C55.8291 18.192 58.9062 20.0317 61.1177 22.7226C63.3293 25.4135 64.5379 28.7887 64.5373 32.2718C64.5364 35.637 63.4065 38.9046 61.3285 41.5516C59.2505 44.1987 56.3446 46.0721 53.0758 46.872M49.4916 36.369V48.325" stroke="#84B750" stroke-width="4" stroke-linecap="round" stroke-linejoin="round"/>
<path d="M41.3696 61.6207C42.5775 61.6207 43.5566 60.6416 43.5566 59.4337C43.5566 58.2259 42.5775 57.2467 41.3696 57.2467C40.1618 57.2467 39.1826 58.2259 39.1826 59.4337C39.1826 60.6416 40.1618 61.6207 41.3696 61.6207Z" stroke="#84B750" stroke-width="4" stroke-linecap="round" stroke-linejoin="round"/>
<path d="M25.6083 43.8851C27.1796 43.8851 28.4534 42.6113 28.4534 41.0399C28.4534 39.4686 27.1796 38.1948 25.6083 38.1948C24.037 38.1948 22.7632 39.4686 22.7632 41.0399C22.7632 42.6113 24.037 43.8851 25.6083 43.8851Z" stroke="#84B750" stroke-width="4" stroke-linecap="round" stroke-linejoin="round"/>
<path d="M49.4964 36.3808C51.803 36.3808 53.673 34.5109 53.673 32.2043C53.673 29.8976 51.803 28.0277 49.4964 28.0277C47.1897 28.0277 45.3198 29.8976 45.3198 32.2043C45.3198 34.5109 47.1897 36.3808 49.4964 36.3808Z" stroke="#84B750" stroke-width="4" stroke-linecap="round" stroke-linejoin="round"/>
</svg>
