<svg width="32" height="25" viewBox="0 0 32 25" fill="none" xmlns="http://www.w3.org/2000/svg">
<path d="M11.7683 19.7539C11.7683 19.7995 11.7524 19.8405 11.7205 19.877C11.6931 19.9134 11.6453 19.943 11.5769 19.9658C11.5085 19.9886 11.4174 20.0068 11.3035 20.0205C11.1895 20.0342 11.0437 20.041 10.866 20.041C10.6928 20.041 10.547 20.0342 10.4285 20.0205C10.3145 20.0068 10.2234 19.9886 10.155 19.9658C10.0867 19.943 10.0365 19.9134 10.0046 19.877C9.97729 19.8405 9.96362 19.7995 9.96362 19.7539V11.4004C9.96362 11.3548 9.97729 11.3138 10.0046 11.2773C10.0365 11.2409 10.0867 11.2113 10.155 11.1885C10.2279 11.1657 10.3214 11.1475 10.4353 11.1338C10.5492 11.1201 10.6928 11.1133 10.866 11.1133C11.0437 11.1133 11.1895 11.1201 11.3035 11.1338C11.4174 11.1475 11.5085 11.1657 11.5769 11.1885C11.6453 11.2113 11.6931 11.2409 11.7205 11.2773C11.7524 11.3138 11.7683 11.3548 11.7683 11.4004V19.7539ZM20.7647 15.4473C20.7647 16.2585 20.6576 16.9535 20.4434 17.5322C20.2338 18.1064 19.9307 18.5758 19.5342 18.9404C19.1377 19.305 18.6547 19.5739 18.085 19.7471C17.5199 19.9157 16.8454 20 16.0616 20H13.9492C13.7989 20 13.6713 19.9567 13.5664 19.8701C13.4662 19.779 13.416 19.6331 13.416 19.4326V11.7217C13.416 11.5212 13.4662 11.3776 13.5664 11.291C13.6713 11.1999 13.7989 11.1543 13.9492 11.1543H16.2188C17.0072 11.1543 17.6748 11.2477 18.2217 11.4346C18.7731 11.6169 19.2357 11.8903 19.6094 12.2549C19.9877 12.6149 20.2748 13.0615 20.4707 13.5947C20.6667 14.1279 20.7647 14.7454 20.7647 15.4473ZM18.9053 15.5088C18.9053 15.0895 18.8552 14.6999 18.7549 14.3398C18.6592 13.9798 18.502 13.6676 18.2832 13.4033C18.069 13.139 17.791 12.9339 17.4492 12.7881C17.112 12.6377 16.6677 12.5625 16.1162 12.5625H15.2071V18.5781H16.1436C16.6358 18.5781 17.0505 18.5143 17.3877 18.3867C17.725 18.2591 18.0052 18.0677 18.2285 17.8125C18.4564 17.5527 18.625 17.2314 18.7344 16.8486C18.8483 16.4658 18.9053 16.0192 18.9053 15.5088Z" fill="#DD1A1A"/>
<path d="M23.3546 20.4029C22.8944 20.3626 22.539 20.3021 22.2884 20.2213C22.0451 20.1411 21.8805 20.0457 21.7945 19.9351C21.7091 19.8172 21.6685 19.6922 21.6727 19.5601C21.6906 19.3555 21.8261 19.1944 22.0794 19.0767C22.3399 18.9596 22.8005 18.9116 23.4612 18.9326L23.2676 19.1254C23.2199 18.7458 23.1995 18.306 23.2064 17.8061C23.2133 17.3061 23.2438 16.7898 23.2977 16.2571C23.3517 15.7245 23.4217 15.219 23.5077 14.7407C23.5944 14.255 23.6929 13.8441 23.8033 13.5077L24.7624 13.5254C24.5959 13.5771 24.3899 13.618 24.1444 13.648C23.8995 13.6707 23.6492 13.6709 23.3935 13.6486C22.9259 13.6077 22.5834 13.5262 22.3659 13.4041C22.1556 13.2826 22.0585 13.1306 22.0745 12.9479C22.1026 12.6265 22.318 12.3951 22.7205 12.2536C23.131 12.1055 23.7416 12.0669 24.5525 12.1378C25.5169 12.2222 26.3137 12.4539 26.9431 12.8328C27.5804 13.2051 28.0458 13.6912 28.3393 14.2911C28.6334 14.8836 28.7476 15.5561 28.6817 16.3086C28.6242 16.9661 28.4543 17.5622 28.1719 18.097C27.8902 18.6244 27.5123 19.0735 27.0382 19.4443C26.572 19.8084 26.0259 20.0771 25.3997 20.2505C24.7815 20.4173 24.0998 20.4681 23.3546 20.4029ZM25.0583 18.8515C25.3067 18.8732 25.5783 18.7976 25.8732 18.6246C26.176 18.445 26.443 18.1702 26.6741 17.8003C26.9059 17.4231 27.047 16.9459 27.0975 16.3687C27.1345 15.945 27.1047 15.5707 27.008 15.2457C26.9193 14.914 26.7892 14.6339 26.6178 14.4055C26.4464 14.177 26.2592 14.0023 26.0563 13.8815C25.854 13.7534 25.6579 13.681 25.468 13.6644C25.3146 13.651 25.1857 13.7354 25.0814 13.9177C24.9844 14.1006 24.9011 14.3804 24.8313 14.7571C24.7622 15.1265 24.7033 15.5888 24.6548 16.144C24.5794 17.006 24.5657 17.6674 24.6137 18.128C24.6617 18.5886 24.8099 18.8297 25.0583 18.8515Z" fill="white"/>
<path d="M10.9298 12.1481C10.2431 12.2082 9.62794 12.1185 9.08432 11.879C8.54071 11.6394 8.10344 11.2691 7.77251 10.7681C7.44094 10.2597 7.24352 9.64389 7.18025 8.92065C7.10994 8.11705 7.19072 7.39962 7.42258 6.76834C7.66175 6.13642 8.02598 5.62975 8.51526 5.24832C9.01121 4.85895 9.6062 4.6339 10.3002 4.57319C11.0381 4.50863 11.6953 4.61676 12.272 4.89757C12.8487 5.17838 13.3126 5.60155 13.6639 6.16708C14.0219 6.72467 14.2351 7.39431 14.3035 8.17599C14.3693 8.92845 14.2728 9.59205 14.0139 10.1668C13.7543 10.7343 13.3601 11.192 12.8311 11.5401C12.3087 11.8803 11.675 12.0829 10.9298 12.1481ZM10.9313 10.5248C11.3258 10.4903 11.6645 10.365 11.9474 10.1488C12.2303 9.93269 12.4371 9.64591 12.5678 9.28849C12.7052 8.92313 12.7537 8.51033 12.7134 8.05009C12.6732 7.58985 12.554 7.1954 12.3559 6.86674C12.1645 6.53015 11.9108 6.27998 11.5946 6.11624C11.2785 5.95251 10.9232 5.88789 10.5287 5.92241C10.1415 5.95628 9.80644 6.08129 9.52353 6.29744C9.24063 6.51358 9.0305 6.80434 8.89316 7.1697C8.75517 7.52775 8.70631 7.9369 8.74658 8.39714C8.78685 8.85739 8.90633 9.25549 9.10503 9.59145C9.3031 9.9201 9.5602 10.1663 9.87634 10.33C10.1925 10.4938 10.5441 10.5587 10.9313 10.5248Z" fill="white"/>
<path d="M19.1589 12.2294C18.4721 12.1694 17.8819 11.9742 17.3882 11.6439C16.8944 11.3136 16.5281 10.873 16.2892 10.3221C16.0509 9.76386 15.9634 9.12313 16.0267 8.39989C16.097 7.59629 16.3011 6.90378 16.6391 6.32236C16.9844 5.74157 17.4311 5.30585 17.9791 5.01518C18.5352 4.71784 19.1602 4.59953 19.8542 4.66025C20.5921 4.7248 21.2206 4.94542 21.7397 5.3221C22.2588 5.69878 22.6423 6.19609 22.89 6.81403C23.1457 7.42531 23.2394 8.12179 23.171 8.90347C23.1052 9.65593 22.8949 10.2927 22.5401 10.8138C22.186 11.3275 21.7182 11.7099 21.1368 11.9608C20.5633 12.2051 19.904 12.2946 19.1589 12.2294ZM19.4422 10.6311C19.8367 10.6656 20.1921 10.601 20.5082 10.4372C20.8243 10.2735 21.0778 10.027 21.2685 9.69768C21.4672 9.36172 21.5867 8.96362 21.627 8.50338C21.6673 8.04314 21.6184 7.63399 21.4804 7.27594C21.3504 6.91121 21.1439 6.62078 20.861 6.40463C20.5781 6.18849 20.2394 6.06316 19.8449 6.02864C19.4577 5.99477 19.1061 6.0597 18.7899 6.22344C18.4738 6.38717 18.2164 6.63702 18.0176 6.97298C17.8196 7.30164 17.7004 7.69609 17.6602 8.15633C17.6199 8.61657 17.6684 9.02937 17.8058 9.39473C17.9438 9.75279 18.1542 10.0399 18.4371 10.256C18.72 10.4722 19.0551 10.5972 19.4422 10.6311Z" fill="white"/>
<path d="M4.79705 11.8473C5.27579 11.7367 5.63252 11.7334 5.86723 11.8373C6.10744 11.9323 6.25641 12.1049 6.31415 12.355C6.38179 12.648 6.29194 12.8945 6.04461 13.0946C5.80443 13.293 5.39853 13.4582 4.8269 13.5902C4.5911 13.6446 4.32232 13.7029 4.02057 13.7651C3.71716 13.8201 3.40578 13.8731 3.08644 13.9243L3.14661 13.6959C3.25436 13.9344 3.34673 14.2367 3.42372 14.6028C3.49905 14.9617 3.54251 15.313 3.55408 15.6565L3.40979 15.5205C4.25185 15.3863 4.92792 15.3318 5.438 15.357C5.94809 15.3823 6.32461 15.4647 6.56757 15.6043C6.81768 15.7422 6.96913 15.9255 7.02192 16.1542C7.06316 16.3328 7.03706 16.4969 6.94364 16.6464C6.84856 16.7887 6.67598 16.8888 6.42589 16.9465C6.06862 17.029 5.63439 17.039 5.1232 16.9763C4.61751 16.9049 4.07664 16.7626 3.50058 16.5494L3.73143 16.4735C3.83862 16.6445 3.9571 16.8805 4.08685 17.1817C4.22209 17.4741 4.34799 17.7913 4.46455 18.1332C4.5866 18.4662 4.68145 18.7793 4.74908 19.0722C4.83652 19.4509 4.8294 19.7461 4.72773 19.9577C4.63321 20.1677 4.46448 20.3007 4.22153 20.3568C4.05005 20.3964 3.89642 20.383 3.76064 20.3165C3.62652 20.2571 3.50669 20.1455 3.40114 19.9818C3.26645 19.757 3.11361 19.4046 2.94262 18.9248C2.77878 18.4433 2.61685 17.856 2.45684 17.1629C2.22094 16.1411 2.09087 15.3169 2.06662 14.6903C2.04073 14.0566 2.08823 13.594 2.20913 13.3027C2.31299 13.068 2.49821 12.8597 2.76477 12.6777C3.02969 12.4886 3.34215 12.3261 3.70217 12.1903C4.06053 12.0474 4.42549 11.933 4.79705 11.8473Z" fill="white"/>
</svg>
