<svg width="81" height="81" viewBox="0 0 81 81" fill="none" xmlns="http://www.w3.org/2000/svg">
<path d="M10.381 30.8271V30.7816C10.381 26.2813 11.7138 21.8818 14.2113 18.1382C16.7089 14.3946 20.2592 11.4746 24.4145 9.7465C28.5697 8.01843 33.1437 7.55977 37.5594 8.42839C41.975 9.297 46.0345 11.454 49.2256 14.6271C51.7364 13.3879 54.5409 12.8669 57.3292 13.1216C60.1176 13.3763 62.7812 14.3969 65.0259 16.0706C67.2705 17.7443 69.0088 20.0059 70.0487 22.6056C71.0886 25.2053 71.3896 28.0418 70.9184 30.8018C71.6112 30.8661 72.2832 31.0725 72.8926 31.4081C73.502 31.7437 74.0357 32.2013 74.4604 32.7523C74.8851 33.3034 75.1916 33.936 75.3609 34.6108C75.5302 35.2856 75.5586 35.9881 75.4443 36.6743C73.156 50.4393 67.4962 59.1518 58.4748 62.8171V66.2191C58.4748 68.2331 57.6747 70.1646 56.2506 71.5887C54.8265 73.0128 52.895 73.8128 50.881 73.8128H30.631C28.6171 73.8128 26.6856 73.0128 25.2614 71.5887C23.8373 70.1646 23.0373 68.2331 23.0373 66.2191V62.8171C14.0159 59.1518 8.35604 50.4393 6.06779 36.6743C5.95736 36.0063 5.98205 35.3229 6.14041 34.6646C6.29877 34.0063 6.58758 33.3864 6.98975 32.8417C7.39191 32.297 7.89926 31.8385 8.48177 31.4933C9.06428 31.1482 9.71011 30.9234 10.381 30.8322V30.8271ZM15.4435 30.7816H20.506C20.506 27.4249 21.8395 24.2058 24.213 21.8323C26.5865 19.4588 29.8056 18.1253 33.1623 18.1253C36.5189 18.1253 39.7381 19.4588 42.1116 21.8323C44.4851 24.2058 45.8185 27.4249 45.8185 30.7816H50.881C50.881 26.0823 49.0143 21.5754 45.6913 18.2525C42.3684 14.9296 37.8616 13.0628 33.1623 13.0628C28.463 13.0628 23.9562 14.9296 20.6332 18.2525C17.3103 21.5754 15.4435 26.0823 15.4435 30.7816ZM25.5685 30.7816H40.756C40.756 28.7676 39.956 26.8361 38.5319 25.412C37.1078 23.9879 35.1763 23.1878 33.1623 23.1878C31.1483 23.1878 29.2168 23.9879 27.7927 25.412C26.3686 26.8361 25.5685 28.7676 25.5685 30.7816ZM60.3277 30.7816H65.7496C66.1318 29.2855 66.1674 27.7219 65.8538 26.2099C65.5401 24.6979 64.8855 23.2775 63.9398 22.0569C62.994 20.8362 61.7821 19.8476 60.3964 19.1663C59.0107 18.4849 57.4877 18.1289 55.9435 18.1253C54.7285 18.1253 53.5743 18.338 52.501 18.7278C53.3971 20.1655 54.1362 21.7146 54.7032 23.3397C55.6675 23.1006 56.6807 23.1498 57.6172 23.4813C58.5537 23.8129 59.3722 24.4121 59.9712 25.2046C60.5702 25.9972 60.9233 26.9482 60.9867 27.9396C61.05 28.931 60.8209 29.9192 60.3277 30.7816ZM53.4123 63.6878H28.0998V66.2191C28.0998 66.8904 28.3665 67.5343 28.8412 68.009C29.3159 68.4837 29.9597 68.7503 30.631 68.7503H50.881C51.5524 68.7503 52.1962 68.4837 52.6709 68.009C53.1456 67.5343 53.4123 66.8904 53.4123 66.2191V63.6878ZM26.3178 58.6253H55.1943C63.2234 56.0435 68.3062 48.7433 70.4527 35.8441H11.0594C13.2059 48.7433 18.2887 56.0435 26.3178 58.6253Z" fill="#84B750"/>
</svg>
