<svg width="24" height="24" viewBox="0 0 24 24" fill="none" xmlns="http://www.w3.org/2000/svg">
<path d="M3.89047 10.2922H21.1095V9.02554H3.89047V10.2922ZM20.7333 9.916V10.4721H22V9.916H20.7333ZM18.6889 20.4255H6.31107V21.6922H18.6889V20.4255ZM4.26667 10.4721V9.916H3V10.4721H4.26667ZM6.66827 20.6459C5.08886 17.487 4.26662 14.0038 4.26667 10.4721H3C3 14.2011 3.86767 17.8783 5.53587 21.2134L6.66827 20.6459ZM6.31107 20.4255C6.46307 20.4255 6.60113 20.5117 6.66827 20.6459L5.53587 21.2134C5.60798 21.3572 5.71867 21.4782 5.85556 21.5627C5.99246 21.6473 6.15017 21.6921 6.31107 21.6922V20.4255ZM18.3317 20.6459C18.3649 20.5796 18.4159 20.5239 18.479 20.485C18.5421 20.446 18.6148 20.4255 18.6889 20.4255V21.6922C19.0183 21.6922 19.3172 21.5073 19.4641 21.2134L18.3317 20.6459ZM20.7333 10.4721C20.7333 14.0035 19.91 17.4869 18.3317 20.6459L19.4641 21.2134C21.1318 17.8784 22 14.2008 22 10.4721H20.7333ZM21.1095 10.2922C21.0098 10.2922 20.9141 10.2526 20.8435 10.182C20.773 10.1115 20.7333 10.0158 20.7333 9.916H22C22 9.67984 21.9062 9.45334 21.7392 9.28635C21.5722 9.11935 21.3457 9.02554 21.1095 9.02554V10.2922ZM3.89047 9.02554C3.6543 9.02554 3.42781 9.11935 3.26081 9.28635C3.09382 9.45334 3 9.67984 3 9.916H4.26667C4.26667 10.0158 4.22703 10.1115 4.15648 10.182C4.08593 10.2526 3.99024 10.2922 3.89047 10.2922V9.02554ZM7.97673 9.9844L11.7767 3.65107L10.6887 3L6.88867 9.33334L7.97673 9.9844ZM13.2233 3.65107L17.0233 9.9844L18.1101 9.33334L14.3101 3L13.2233 3.65107ZM11.8667 11.5589V17.8922H13.1333V11.5589H11.8667ZM9.33333 15.3589H15.6667V14.0922H9.33333V15.3589Z" fill="#677487"/>
</svg>
