<svg width="140" height="24" viewBox="0 0 140 24" fill="none" xmlns="http://www.w3.org/2000/svg">
<path d="M5.825 22L7.45 14.975L2 10.25L9.2 9.625L12 3L14.8 9.625L22 10.25L16.55 14.975L18.175 22L12 18.275L5.825 22Z" fill="#FFE600"/>
<path d="M34.825 22L36.45 14.975L31 10.25L38.2 9.625L41 3L43.8 9.625L51 10.25L45.55 14.975L47.175 22L41 18.275L34.825 22Z" fill="#FFE600"/>
<path d="M63.825 22L65.45 14.975L60 10.25L67.2 9.625L70 3L72.8 9.625L80 10.25L74.55 14.975L76.175 22L70 18.275L63.825 22Z" fill="#FFE600"/>
<path d="M92.825 22L94.45 14.975L89 10.25L96.2 9.625L99 3L101.8 9.625L109 10.25L103.55 14.975L105.175 22L99 18.275L92.825 22Z" fill="#FFE600"/>
<path d="M128 8.125V15.925L131.15 17.85L130.325 14.25L133.1 11.85L129.45 11.525L128 8.125ZM121.825 22L123.45 14.975L118 10.25L125.2 9.625L128 3L130.8 9.625L138 10.25L132.55 14.975L134.175 22L128 18.275L121.825 22Z" fill="#FFE500"/>
</svg>
