<svg width="81" height="81" viewBox="0 0 81 81" fill="none" xmlns="http://www.w3.org/2000/svg">
<path d="M2.53125 25.3125H35.4375L37.9688 30.375H5.0625L2.53125 25.3125ZM5.90625 35.4375H38.8125L41.3438 40.5H8.4375L5.90625 35.4375ZM60.75 62.4375C63.5512 62.4375 65.8125 60.1762 65.8125 57.375C65.8125 54.5738 63.5512 52.3125 60.75 52.3125C57.9488 52.3125 55.6875 54.5738 55.6875 57.375C55.6875 60.1762 57.9488 62.4375 60.75 62.4375ZM65.8125 32.0625H57.375V40.5H72.4275L65.8125 32.0625ZM27 62.4375C29.8012 62.4375 32.0625 60.1762 32.0625 57.375C32.0625 54.5738 29.8012 52.3125 27 52.3125C24.1988 52.3125 21.9375 54.5738 21.9375 57.375C21.9375 60.1762 24.1988 62.4375 27 62.4375ZM67.5 27L77.625 40.5V57.375H70.875C70.875 62.9775 66.3525 67.5 60.75 67.5C55.1475 67.5 50.625 62.9775 50.625 57.375H37.125C37.125 62.9775 32.5687 67.5 27 67.5C21.3975 67.5 16.875 62.9775 16.875 57.375H10.125V45.5625H16.875V50.625H19.44C21.2963 48.5662 23.9963 47.25 27 47.25C30.0037 47.25 32.7037 48.5662 34.56 50.625H50.625V20.25H10.125C10.125 16.5037 13.1287 13.5 16.875 13.5H57.375V27H67.5Z" fill="#84B750"/>
</svg>
